<?xml version="1.0" encoding="UTF-8"?><svg id="fisev_dev_transparent" xmlns="http://www.w3.org/2000/svg" viewBox="0 0 112.26 32"><defs><style>.cls-1{fill:#fff;}.cls-2{fill:#f60;}</style></defs><path id="developer" class="cls-1" d="M95.88,18.55c-.6-.66-1.36-1.18-2.28-1.54-.92-.37-2-.55-3.24-.55-1.16,0-2.2,.21-3.11,.62-.91,.41-1.68,.97-2.31,1.66-.63,.69-1.11,1.5-1.45,2.41-.34,.91-.51,1.87-.51,2.87,0,1.13,.17,2.16,.51,3.09,.34,.92,.83,1.72,1.48,2.38,.65,.66,1.45,1.18,2.4,1.54,.95,.37,2.03,.55,3.25,.55,1.35,0,2.49-.15,3.4-.46,.91-.31,1.76-.78,2.55-1.41l-1.68-2.45c-1.12,.92-2.55,1.38-4.27,1.38-1.18,0-2.14-.27-2.89-.82-.75-.55-1.19-1.38-1.32-2.5h11.18c0-.13,0-.27,.03-.4,0-.12,0-.25,.01-.4,0-.15,.01-.33,.01-.52,0-1.12-.15-2.13-.44-3.06-.29-.92-.74-1.72-1.34-2.38Zm-9.43,4.17c.14-.98,.55-1.78,1.23-2.39,.69-.62,1.58-.92,2.69-.92,2.28,0,3.58,1.11,3.89,3.32h-7.81Zm-8.43-4.3c-.56-.65-1.25-1.14-2.08-1.47-.82-.33-1.71-.49-2.66-.49-1.1,0-2.1,.2-3,.59-.9,.39-1.67,.93-2.31,1.62-.64,.68-1.13,1.48-1.47,2.39s-.51,1.9-.51,2.96,.17,2.01,.51,2.93,.83,1.72,1.47,2.41c.64,.69,1.41,1.24,2.31,1.63,.9,.39,1.9,.59,3,.59,.95,0,1.83-.16,2.66-.49,.82-.33,1.51-.81,2.08-1.44v1.59h3.37V10h-3.37v8.42Zm-.29,7.37c-.19,.55-.47,1.02-.84,1.43-.37,.4-.82,.72-1.35,.95-.53,.23-1.15,.35-1.84,.35s-1.31-.12-1.84-.35c-.53-.23-.98-.55-1.35-.95-.37-.4-.65-.88-.84-1.43-.19-.55-.29-1.14-.29-1.77s.1-1.23,.29-1.77,.48-1.02,.86-1.43c.38-.4,.83-.72,1.36-.95s1.14-.35,1.81-.35,1.28,.12,1.81,.35,.99,.55,1.36,.95c.38,.4,.66,.88,.86,1.43s.29,1.14,.29,1.77-.1,1.23-.29,1.77Zm34.53-8.99l-5.78,14.42h-3.77l-5.78-14.42h3.72l3.95,10.99,3.95-10.99h3.72Z"/><path id="fiserv" class="cls-2" d="M32.59,9.18c3.71,0,5.66,1.68,5.67,5.79h0v6.87h-7.65v4.77c0,1.5,.55,2.55,2.05,2.55s2.06-1.04,2.06-2.55h0v-2.12s3.54,0,3.54,0v1.79c0,4.11-2.28,5.71-5.67,5.71s-5.65-1.95-5.66-5.71h0V15c0-4.14,1.81-5.82,5.66-5.82Zm-12.55,0c3.2,0,5.23,1.34,5.25,3.98h0v3.36h-3.58v-2.06c0-1.58-.18-2.51-1.58-2.51s-1.53,.94-1.53,2.49c0,1.82,.24,2.15,3.04,4.61,3.28,2.88,3.87,3.75,3.88,7h0v.39c0,4.66-2.37,5.56-5.43,5.56s-5.43-.9-5.43-4.52h0v-2.94h3.76v2.85c0,.7,.1,1.84,1.67,1.84s1.66-1.13,1.66-2.62c.01-2.42-.25-2.67-2.68-4.7h0l-.94-.8c-3.11-2.66-3.28-4.68-3.3-6.01v-.1s0,.02,0,.02v-.02s0-.02,0-.04v-.2s0-.06,0-.09v-.24c.02-4.21,2.07-5.26,5.22-5.26ZM8.5,0V3.02h-.67c-.67,0-1.17,.16-1.49,.51-.32,.34-.46,.85-.46,1.51h0v4.52h2.63v2.95h-2.63V31.76H2.13V12.5H0v-2.95H2.13V4.45c0-1.58,.23-2.68,.99-3.39C3.88,.35,5.48,0,7.15,0h1.35Zm55.5,27.53v4h-4.01v-4h4.01Zm-12.25-18.12l2.45,18.13,2.44-18.13h3.81l-3.57,22.12h-5.42l-3.53-22.12h3.81Zm-38.29,0V31.53h-3.78V9.41h3.78Zm33.54-.24v3.91c-1,.01-1.78,.16-2.42,.6-.67,.46-1.06,1.25-1.06,2.44h0v15.4h-3.6V9.43h3.34v2.28l.04-.08c.97-2.03,1.79-2.41,3.71-2.45h0Zm-14.35,2.5c-1.72,0-2.04,1.3-2.04,2.56h0v4.61h4.1v-4.61c0-1.28-.35-2.56-2.06-2.56Z"/></svg>