<svg width="190" height="37" viewBox="0 0 750 148" xmlns="http://www.w3.org/2000/svg"><g fill="none" fill-rule="evenodd"><path d="M127.48 37c14.715 0 22.483 6.641 22.52 22.848v27.087h-30.374v18.826c0 5.923 2.175 10.074 8.14 10.074 5.957 0 8.18-4.118 8.18-10.065l-.018-8.342H150v7.04c-.037 16.21-9.07 22.532-22.528 22.532-13.46 0-22.428-7.68-22.472-22.532V59.953C105 43.627 112.173 37 127.48 37zm-49.623 0c12.363 0 20.232 5.289 20.279 15.68v13.236h-13.86v-8.112c0-6.225-.705-9.9-6.103-9.9-5.4 0-5.923 3.719-5.923 9.83 0 7.17.914 8.487 11.756 18.188C96.683 87.263 98.967 90.704 99 103.537v1.527C99 123.434 89.842 127 77.988 127 66.142 127 57 123.466 57 109.194V97.59h14.547v11.386c.015 2.782.483 7.122 6.458 7.122 6.077 0 6.43-4.46 6.437-10.34.047-9.544-.982-10.513-10.348-18.536l-3.64-3.171c-12.71-11.082-12.735-19.36-12.759-24.583v.637l-.001.037v-.031l-.001-.027v-.132l-.001-.062v-1l.003-1.158C57.763 41.114 65.695 37 77.857 37zM252 110v16h-16v-16h16zm-49.073-72l9.577 72.135L222.072 38H237l-13.963 88h-21.223L188 38h14.927zM51 38v88H37V38h14zM32.998 0v11.89h-2.617c-2.608 0-4.535.637-5.795 1.989-1.254 1.355-1.79 3.34-1.79 5.932v17.77H33v11.618H22.795V125H8.267V49.2H0V37.58h8.267V17.525c0-6.203.884-10.555 3.84-13.357C15.066 1.362 21.283 0 27.741 0h5.256zM184 36v15.57c-3.944.053-7.049.65-9.57 2.404-2.662 1.845-4.194 4.964-4.185 9.703V125H156V37.008h13.204v9.06l.146-.323c3.836-8.083 7.094-9.589 14.65-9.745zm-56.276 10.84c-6.81 0-8.098 5.13-8.098 10.089V75.09h16.291V56.925c0-5.028-1.384-10.086-8.193-10.086z" fill="#F60"/><path d="M620 65c17.12 0 31 13.88 31 31 0 17.12-13.88 31-31 31a30.855 30.855 0 01-17-5.073V148h-14V67h14v3.073A30.855 30.855 0 01620 65zM320.5 39.5v85.75h-14v-4.75c-6.649 4.333-13.609 6.5-20.88 6.5-10.907 0-26.377-9-26.377-31.471s17.427-29.092 27.363-29.754c6.624-.44 13.255 1.496 19.894 5.81V39.5h14zM553 65c17.12 0 31 13.88 31 31 0 17.12-13.88 31-31 31-17.12 0-31-13.88-31-31 0-17.12 13.88-31 31-31zm-196.974.441l.836.014c18.57.47 27.777 12.456 27.619 35.954l-.008.716h-43.185c2.102 7.308 6.747 11.242 13.935 11.802 7.012.547 13.022-1.162 18.028-5.126l.374-.301L381 119c-7.198 6.607-17.473 8.973-30.825 7.097-20.027-2.814-23.836-20.362-23.836-28.358 0-7.837 2.292-32.004 28.866-32.296l.82-.002zm113 0l.836.014c18.57.47 27.777 12.456 27.619 35.954l-.008.716h-43.185c2.102 7.308 6.747 11.242 13.935 11.802 7.012.547 13.022-1.162 18.028-5.126l.374-.301L494 119c-7.198 6.607-17.473 8.973-30.825 7.097-20.027-2.814-23.836-20.362-23.836-28.358 0-7.837 2.292-32.004 28.866-32.296l.82-.002zm214 0l.836.014c18.57.47 27.777 12.456 27.619 35.954l-.008.716h-43.185c2.102 7.308 6.747 11.242 13.935 11.802 7.012.547 13.022-1.162 18.028-5.126l.374-.301L708 119c-7.198 6.607-17.473 8.973-30.825 7.097-20.027-2.814-23.836-20.362-23.836-28.358 0-7.837 2.292-32.004 28.866-32.296l.82-.002zM518 40v85h-14V40h14zm231.313 25.44v14.206c-4.523-.606-8.462.007-11.815 1.84-4.077 2.23-6.374 7.328-6.498 9.07V125h-14V67h14v8.513c3.19-4.351 6.238-7.189 9.145-8.513 3.452-1.573 6.508-2.093 9.168-1.56zM396.75 66.875l15.375 41.645 15.125-41.645H443l-22.75 58H404l-23-58h15.75zM289.5 79c-9.113 0-16.5 7.611-16.5 17s7.387 17 16.5 17 16.5-7.611 16.5-17-7.387-17-16.5-17zM620 79c-9.389 0-17 7.611-17 17s7.611 17 17 17 17-7.611 17-17-7.611-17-17-17zm-67 0c-9.389 0-17 7.611-17 17s7.611 17 17 17 17-7.611 17-17-7.611-17-17-17zm-197.125-.875c-7.948 0-12.736 4.083-14.364 12.25h28.643c-1.571-8.167-6.331-12.25-14.279-12.25zm113 0c-7.948 0-12.736 4.083-14.364 12.25h28.643c-1.571-8.167-6.331-12.25-14.279-12.25zm214 0c-7.948 0-12.736 4.083-14.364 12.25h28.643c-1.571-8.167-6.331-12.25-14.279-12.25z" fill="#FFF"/></g></svg>